<svg version="1.1" xmlns="http://www.w3.org/2000/svg" xmlns:xlink="http://www.w3.org/1999/xlink" width="97.15" height="46" viewBox="0,0,97.15,46"><defs><linearGradient x1="226.5" y1="156.5" x2="226.5" y2="178.63953" gradientUnits="userSpaceOnUse" id="color-1"><stop offset="0" stop-color="#000000"/><stop offset="1" stop-color="#a3a3a3"/></linearGradient><linearGradient x1="265.5" y1="155.55581" x2="265.5" y2="186.35581" gradientUnits="userSpaceOnUse" id="color-2"><stop offset="0" stop-color="#000000"/><stop offset="1" stop-color="#a3a3a3"/></linearGradient><linearGradient x1="210" y1="153.35581" x2="210" y2="156.75581" gradientUnits="userSpaceOnUse" id="color-3"><stop offset="0" stop-color="#000000"/><stop offset="1" stop-color="#a3a3a3"/></linearGradient><linearGradient x1="244.4" y1="153.15581" x2="244.4" y2="156.55581" gradientUnits="userSpaceOnUse" id="color-4"><stop offset="0" stop-color="#000000"/><stop offset="1" stop-color="#a3a3a3"/></linearGradient><linearGradient x1="227.3" y1="148.75581" x2="227.3" y2="153.35581" gradientUnits="userSpaceOnUse" id="color-5"><stop offset="0" stop-color="#000000"/><stop offset="1" stop-color="#a3a3a3"/></linearGradient><linearGradient x1="207.5" y1="177.35581" x2="207.5" y2="194.75581" gradientUnits="userSpaceOnUse" id="color-6"><stop offset="0" stop-color="#000000"/><stop offset="1" stop-color="#a3a3a3"/></linearGradient><linearGradient x1="186.2" y1="167.35581" x2="186.2" y2="172.95581" gradientUnits="userSpaceOnUse" id="color-7"><stop offset="0" stop-color="#000000"/><stop offset="1" stop-color="#a3a3a3"/></linearGradient><linearGradient x1="249.4" y1="178.55581" x2="249.4" y2="185.35581" gradientUnits="userSpaceOnUse" id="color-8"><stop offset="0" stop-color="#000000"/><stop offset="1" stop-color="#a3a3a3"/></linearGradient></defs><g transform="translate(-176.35,-148.75581)"><g data-paper-data="{&quot;isPaintingLayer&quot;:true}" fill-rule="nonzero" stroke="none" stroke-linecap="butt" stroke-linejoin="miter" stroke-miterlimit="10" stroke-dasharray="" stroke-dashoffset="0" style="mix-blend-mode: normal"><path d="M194.5,178.63953v-22.13953h64v22.13953z" fill="url(#color-1)" stroke-width="0"/><path d="M257.5,186.35581v-30.8h16v30.8z" fill="url(#color-2)" stroke-width="0"/><path d="M207.1,156.75581v-3.4h5.8v3.4z" fill="url(#color-3)" stroke-width="0"/><path d="M241.5,156.55581v-3.4h5.8v3.4z" fill="url(#color-4)" stroke-width="0"/><path d="M208.5,153.35581v-4.6h37.6v4.6z" fill="url(#color-5)" stroke-width="0"/><path d="M203.7,194.75581v-17.4h7.6v17.4z" fill="url(#color-6)" stroke-width="0"/><path d="M176.5,172.95581v-5.6h19.4v5.6z" fill="url(#color-7)" stroke-width="0"/><path d="M246.3,185.35581v-6.8h6.2v6.8z" fill="url(#color-8)" stroke-width="0"/><path d="M209.9,160.35581v-1.8h17.4v1.8z" fill="#b7b7b7" stroke-width="0"/><path d="M229.1,159.55581c0,0.88366 -0.89543,1.6 -2,1.6c-1.10457,0 -2,-0.71634 -2,-1.6c0,-0.88366 0.89543,-1.6 2,-1.6c1.10457,0 2,0.71634 2,1.6z" fill="#b7b7b7" stroke-width="0"/><path d="M206.01493,192.67253c0.20521,0.08274 0.43507,0.26808 0.43507,0.68328c0,0.75 -0.75,0.75 -0.75,0.75l-0.87082,-0.41459c-1.72169,-3.61161 2.23693,-7.17907 -0.1723,-10.94954c0,0 -0.38587,-0.64312 0.25725,-1.02899c0.64312,-0.38587 1.02899,0.25725 1.02899,0.25725c0.82494,1.4391 1.46425,4.00168 1.09335,5.7277c-0.34962,1.62698 -1.62233,3.32557 -1.02153,4.97489z" fill="#b7b7b7" stroke-width="0.5"/><path d="M208.7,194.50581c-0.75,0 -0.75,-0.75 -0.75,-0.75v-0.4c0,-3.36482 0.65232,-6.93764 -0.17761,-10.2181c0,0 -0.1819,-0.72761 0.54571,-0.90951c0.72761,-0.1819 0.90951,0.54571 0.90951,0.54571c0.84854,3.43113 0.22239,7.07165 0.22239,10.5819v0.4c0,0 0,0.75 -0.75,0.75z" fill="#b7b7b7" stroke-width="0.5"/><path d="M177.5,168.70581c-0.75,0 -0.75,-0.75 -0.75,-0.75l0.00256,-0.73814c0.18539,-0.17064 0.37078,-0.34127 0.55616,-0.51191l0.53939,0.70322c0.00063,0.24894 0.00126,0.49789 0.00189,0.74683c0,0 0,0.75 -0.75,0.75c-0.75,0 -0.75,-0.75 -0.75,-0.75c0.00063,-0.28439 0.00126,-0.56878 0.00189,-0.85317l0.93939,-2.09678c0.31872,0.62936 0.63744,1.25873 0.95616,1.88809l0.00256,0.86186c0,0 0,0.75 -0.75,0.75z" fill="#b7b7b7" stroke-width="0.5"/><path d="M272.43033,169.88614c-0.53033,0.53033 -1.06066,0 -1.06066,0l-0.6781,-0.6918c-1.7429,-3.56336 -3.52219,-8.81707 -3.54157,-12.83853c0,0 0,-0.75 0.75,-0.75c0.75,0 0.75,0.75 0.75,0.75c-0.01982,3.54243 1.64521,8.86945 3.25843,11.96147l0.5219,0.5082c0,0 0.53033,0.53033 0,1.06066z" fill="#b7b7b7" stroke-width="0.5"/><path d="M247.02761,183.53772c-0.1819,0.72761 -0.90951,0.54571 -0.90951,0.54571l-0.98963,-0.2761c-1.34916,-1.30259 -3.20838,-2.87863 -3.92482,-4.57296c0,0 -0.27854,-0.69636 0.41781,-0.9749c0.69636,-0.27854 0.9749,0.41781 0.9749,0.41781c0.50615,1.37575 2.25645,2.70927 3.27518,3.82704l0.61037,0.1239c0,0 0.72761,0.1819 0.54571,0.90951z" fill="#b7b7b7" stroke-width="0.5"/><path d="M244.8819,179.88342c-0.72761,0.1819 -0.90951,-0.54571 -0.90951,-0.54571l-0.2,-0.8c0,0 -0.1819,-0.72761 0.54571,-0.90951c0.72761,-0.1819 0.90951,0.54571 0.90951,0.54571l0.2,0.8c0,0 0.1819,0.72761 -0.54571,0.90951z" fill="#b7b7b7" stroke-width="0.5"/><path d="M226.7,171.60581c0.25822,0 0.48596,0.13049 0.62087,0.32913c0.02964,0.02013 0.05777,0.04233 0.08417,0.0664c0.39158,-2.0998 0.27217,-4.37885 0.19193,-6.58093c-0.14348,-0.79821 -0.23255,-1.56576 -0.24697,-2.2646c0,0 0,-0.75 0.75,-0.75c0.32942,0 0.51415,0.14469 0.61774,0.30696c0.33226,0.20718 0.33226,0.64304 0.33226,0.64304c0,0.67768 0.01866,1.36792 0.04076,2.06441c0.40371,1.97889 1.22017,4.19622 1.76115,5.82776l0.00182,0.00074c0.92626,-0.31834 2.19345,-0.24228 3.04627,-0.24291c0.01617,-0.00001 0.03235,-0.00004 0.04854,-0.00008c-0.05464,-0.47939 -0.10586,-0.98999 -0.14501,-1.51516c-0.23339,0.00955 -0.46787,0.01463 -0.70353,0.01523c0,0 -0.75,0 -0.75,-0.75c0,-0.75 0.75,-0.75 0.75,-0.75c0.21074,0.0006 0.42163,-0.00284 0.6325,-0.01029c-0.03096,-1.83534 0.1727,-3.6596 0.95482,-4.81197c-0.01242,-0.00927 -0.02486,-0.01852 -0.03732,-0.02774c0,0 -0.6,-0.45 -0.15,-1.05c0.45,-0.6 1.05,-0.15 1.05,-0.15c1.56492,1.18709 2.80354,2.74742 3.90233,4.43753c0.17298,-0.01822 0.37549,0.02963 0.578,0.23214c0.34691,0.34691 0.23996,0.69383 0.12449,0.89229c0.7244,1.20106 1.40133,2.4388 2.09264,3.63248c0.39443,0.07614 0.77463,0.1655 1.14472,0.26134c-0.08509,-0.20342 -0.11386,-0.49476 0.17749,-0.78611c0.53033,-0.53033 1.06066,0 1.06066,0l0.33934,0.33934c0.22704,0.28544 0.45409,0.57087 0.68113,0.85631c0.58778,-0.34959 3.43589,-0.47882 3.55629,-0.95233c0.76676,-3.01552 -4.61813,-3.18001 -6.08248,-4.83192c-1.58599,-1.78912 -0.29007,-4.09058 1.45797,-4.89653c0.47258,-0.21788 0.98683,-0.3307 1.48025,-0.49605c0,0 0.71151,-0.23717 0.94868,0.47434c0.23717,0.71151 -0.47434,0.94868 -0.47434,0.94868c-0.45527,0.15088 -0.91777,0.28145 -1.3658,0.45263c-0.84187,0.32167 -1.85846,1.60452 -0.89598,2.55479c1.52853,1.50914 4.43158,1.37854 5.80042,3.00051c0.91132,1.07984 1.02648,3.59518 -0.40318,4.33275c0.52635,-0.07912 1.07787,-0.21734 1.66448,-0.43087c0.30299,-0.10901 0.60599,-0.21802 0.90898,-0.32704l0.12357,-0.22462c0,0 0.53033,-0.53033 1.06066,0c0.53033,0.53033 0,1.06066 0,1.06066l-0.67643,0.57538c-0.30299,0.10901 -0.60599,0.21802 -0.90898,0.32704c-3.43387,1.22261 -5.69292,0.17918 -8.55119,-0.50535c0.11125,0.17445 0.22358,0.34689 0.33721,0.51703l-0.13624,1.01256c0,0 -0.45699,0.59469 -1.05168,0.1377c-0.28815,-0.22143 -0.32939,-0.47519 -0.29534,-0.67797c-0.28075,-0.43752 -0.55457,-0.8924 -0.82538,-1.35844c-0.03784,-0.00477 -0.07581,-0.0094 -0.11393,-0.01391c-1.797,-0.21232 -3.70703,-0.09765 -5.56628,-0.03116l0.00791,0.48359c0,0 0.00318,0.74999 -0.74681,0.75318c-0.74999,0.00318 -0.75318,-0.74681 -0.75318,-0.74681l0.00482,-0.31722c-0.00593,-0.04482 -0.01196,-0.0904 -0.01809,-0.1367c-0.07909,0.00054 -0.15801,0.00079 -0.23673,0.00073c-0.51277,-0.0004 -1.45832,-0.09478 -2.15258,0.02964c-0.21757,0.38881 -0.5558,0.40091 -0.7733,0.35815c-1.49202,1.20235 -2.89913,1.91977 -4.78701,2.68619c-5.80968,1.16097 -12.11053,0.51155 -18.01949,1.12297c-1.22356,0.12661 -4.58724,-0.29844 -4.99681,0.98847c0,0 -0.33541,0.67082 -1.00623,0.33541c-0.67082,-0.33541 -0.33541,-1.00623 -0.33541,-1.00623c0.10409,-0.17664 0.21903,-0.33476 0.34357,-0.47636c-1.01143,-3.18483 -0.51116,-9.27673 -3.34127,-11.40258c0,0 -0.58565,-0.46852 -0.11713,-1.05417c0.37034,-0.46293 0.81387,-0.2672 0.98349,-0.16484c0.13404,-0.07787 0.25507,-0.10208 0.25507,-0.10208c2.30042,-0.45635 4.60757,-0.41456 6.94709,-0.41456h0.8c0,0 0.75,0 0.75,0.75c0,0.75 -0.75,0.75 -0.75,0.75h-0.8c-2.02833,0 -4.04193,-0.04767 -6.03848,0.27417c0.60957,0.88945 1.00039,1.93221 1.27865,3.04442c0.12897,-0.02449 0.22773,-0.01551 0.22773,-0.01551c2.37585,0.21654 4.74895,0.19426 7.13293,0.19692l0.19916,0c0,0 0.75,0 0.75,0.75c0,0.75 -0.75,0.75 -0.75,0.75l-0.20084,0c-2.35604,-0.00263 -4.7008,0.01533 -7.0487,-0.18392c0.33116,1.91691 0.48123,3.92341 0.93302,5.63813c0.09807,0.08078 0.16006,0.18278 0.19923,0.27945c1.33842,-0.45018 3.01877,-0.28041 4.44966,-0.43061c0.45737,-0.04801 0.91742,-0.08798 1.37967,-0.12144c-0.0386,-0.08986 -0.06204,-0.19902 -0.06204,-0.33162c0,-0.53264 0.37827,-0.68701 0.59753,-0.73174c2.50952,-2.89223 3.22563,-6.63616 2.80706,-10.38543c0,0 -0.08282,-0.74541 0.66259,-0.82824c0.37408,-0.04156 0.58129,0.12546 0.6949,0.30218c0.56869,-0.36574 0.98792,0.19323 0.98792,0.19323c2.39359,3.2104 2.28832,6.64416 3.51151,10.21283l0.03849,0.83717c0,0 0,0.27076 -0.16269,0.48691c2.46804,-0.06818 4.9131,-0.22792 7.26731,-0.69924c0.69158,-0.28405 1.29197,-0.57542 1.85229,-0.88473c-0.06809,-0.03251 -0.13755,-0.0792 -0.20719,-0.14367c-0.11523,0.10304 -0.2625,0.17098 -0.42502,0.18706c-0.03548,0.06078 -0.08277,0.12239 -0.14438,0.184c-0.53033,0.53033 -1.06066,0 -1.06066,0l-0.34442,-0.4029c-1.09719,-2.26125 -2.13489,-4.53934 -3.22018,-6.7983c-0.10452,2.22036 -0.35507,4.42841 -0.35507,6.67087v0.4c0,0 0,0.75 -0.75,0.75c-0.75,0 -0.75,-0.75 -0.75,-0.75v-0.4c0,-2.82211 0.40298,-5.59534 0.4,-8.4c0,0 0,-0.49008 0.39616,-0.67792c0.00947,-0.20186 0.10201,-0.43469 0.41843,-0.5929c0.67082,-0.33541 1.00623,0.33541 1.00623,0.33541c1.3299,2.66081 2.54961,5.36122 3.83597,8.04489c0.09007,-0.03829 0.18916,-0.05948 0.29321,-0.05948zM239.0383,168.48354c-1.23381,0.43062 -2.48118,0.72665 -3.75684,0.88534c0.04718,0.56856 0.10699,1.11532 0.16652,1.60437c1.64796,-0.05844 3.34653,-0.16528 4.97138,-0.05622c-0.45036,-0.80908 -0.90457,-1.62996 -1.38106,-2.43349zM235.80209,164.13995c-0.52531,0.74317 -0.64825,2.20971 -0.60605,3.73921c1.03502,-0.12823 2.05913,-0.35338 3.0506,-0.67351c-0.72948,-1.11975 -1.52591,-2.17079 -2.44455,-3.0657zM229.085,170.64002c-0.05042,0.63048 -0.12972,1.25305 -0.24957,1.86288l-0.02034,0.02928c0.26922,-0.17408 0.53793,-0.35486 0.81288,-0.54376c-0.18187,-0.42288 -0.36453,-0.87548 -0.54297,-1.3484zM215.9,171.30581c-0.85253,-0.00253 -1.66436,-0.14279 -2.50443,-0.1869c-0.52867,1.38535 -1.28634,2.69084 -2.30353,3.87325c2.06213,-0.08828 4.1561,-0.08548 6.24126,-0.12342c-0.1833,-0.21975 -0.1833,-0.51293 -0.1833,-0.51293l0.03849,-0.36283c-0.29396,-0.90288 -0.5026,-1.80001 -0.69248,-2.68717zM215.9,169.80581l0.27869,0c-0.37139,-1.70903 -0.81546,-3.3709 -1.82913,-4.95428c0.06528,1.64065 -0.08427,3.25997 -0.48664,4.80414c0.6778,0.06002 1.34472,0.15253 2.03709,0.15013z" fill="#b7b7b7" stroke-width="0.5"/></g></g></svg>